<?xml version="1.0" encoding="UTF-8" standalone="no"?>
<svg
   version="1.1"
   width="24"
   height="24"
   viewBox="0 0 24 24"
   id="svg4"
   sodipodi:docname="file-export-outline-all.svg"
   inkscape:version="1.1.1 (3bf5ae0d25, 2021-09-20)"
   xmlns:inkscape="http://www.inkscape.org/namespaces/inkscape"
   xmlns:sodipodi="http://sodipodi.sourceforge.net/DTD/sodipodi-0.dtd"
   xmlns="http://www.w3.org/2000/svg"
   xmlns:svg="http://www.w3.org/2000/svg">
  <defs
     id="defs8" />
  <sodipodi:namedview
     id="namedview6"
     pagecolor="#ffffff"
     bordercolor="#666666"
     borderopacity="1.0"
     inkscape:pageshadow="2"
     inkscape:pageopacity="0.0"
     inkscape:pagecheckerboard="0"
     showgrid="false"
     inkscape:zoom="36.375"
     inkscape:cx="12"
     inkscape:cy="12"
     inkscape:window-width="2400"
     inkscape:window-height="1471"
     inkscape:window-x="2391"
     inkscape:window-y="-9"
     inkscape:window-maximized="1"
     inkscape:current-layer="svg4" />
  <path
     id="path2"
     d="m 5.6429674,-0.06254696 c -1.1,0 -2,0.9 -2,1.99999996 v 16 c 0,1.1 0.9,2 2,2 h 0.8730469 v -2 H 5.6429674 v -16 h 7.0000006 v 1.0859375 h 4.085937 l -3.085937,-3.08593746 z" />
  <path
     d="M 17.082474,3.7800687 H 9.0824736 c -1.1,0 -2,0.9 -2,1.9999997 V 21.780069 c 0,1.1 0.9,2 2,2 H 21.082474 c 1.1,0 2,-0.9 2,-2 V 9.7800685 l -6,-5.9999998 m 4,18.0000003 H 9.0824736 V 5.7800684 h 7.0000004 v 5.0000006 h 5 v 11 m -2,-9 v 7.1 l -2.1,-2.1 -2.8,2.8 -2.8,-2.8 2.8,-2.8 -2.2,-2.2 z"
     id="path2-2" />
</svg>
