<?xml version="1.0" encoding="utf-8"?>
<!-- Svg Vector Icons : http://www.onlinewebfonts.com/icon -->
<!DOCTYPE svg PUBLIC "-//W3C//DTD SVG 1.1//EN" "http://www.w3.org/Graphics/SVG/1.1/DTD/svg11.dtd">
<svg version="1.1" xmlns="http://www.w3.org/2000/svg" xmlns:xlink="http://www.w3.org/1999/xlink" x="0px" y="0px" viewBox="0 0 1000 1000" enable-background="new 0 0 1000 1000" xml:space="preserve">
<metadata> Svg Vector Icons : http://www.onlinewebfonts.com/icon </metadata>
<g><g><g><path d="M24,733.8c3.8,5.6,7.9,6.7,10.7,6.7c2.3,0,10.1-1,11.5-13.8c7.7-68.2,94.6-151.3,211.4-201.9c36.2-15.7,72.5-27.3,108.3-34.5c-1.1,0.5-2.2,1-3.2,1.4c-82.2,31.3-155.2,79.8-200.2,133c-41.6,49.1-55.4,97.1-38.9,135.1c16.5,38,61,60.7,125.2,63.9c5,0.3,10.2,0.4,15.4,0.4c5.1,0,10.5-0.1,15.8-0.4c3.6-0.2,11.9-0.5,12.9-7.8c0.9-7.3-7.2-9.7-10.7-10.8c-34-10.3-56-29.1-63.4-54.3c-9.3-31.6,4.6-71.6,39.3-112.6c21.5-25.4,49.3-49.5,82.8-71.8c-1.1,2.2-2.6,4.6-4.7,6.9c-47.1,52-63.4,102.8-45.9,143c17.7,40.9,69.1,64.3,141,64.3c58.9,0,127.6-15.7,193.5-44.3c12.1-5.3,24.2-11,36-17.1c4.3-2.2,10.2-5.3,8.7-11.5c-0.7-2.8-3.3-5.7-7.6-5.7c-1.2,0-3.1,0.2-7.4,1.5c-43.5,13-86.6,19.9-124.6,19.9c-65.8,0-112.4-20.3-127.7-55.6c-6.2-14.4-7.2-30.8-2.8-48.9c0.9-3.8,5.1-5.8,8.6-5.8c0.4,0,0.8,0,1.2,0.1c5,0.7,11.3,5.4,14.4,10.8c19.1,33,62.1,52.9,121,55.8c5.2,0.3,10.5,0.4,15.9,0.4c127.3,0,289.1-73.4,368.4-167.1c5.8-6.9,11.3-14,16.1-21c2.7-3.9,5.4-8.5,3-13c-1.3-2.5-4-4.1-6.9-4.1c-2.9,0-5.6,1.4-9.8,4.9C846.6,551.1,716.6,601,615.1,601c-5.1,0-10.2-0.1-15.2-0.4c-21.8-1.1-41.2-4.5-57.7-10.3c1.5-0.6,3.1-1.3,4.6-2c2.9-1.3,5.8-2.6,8.7-3.9c3-1.4,11.8-3,19.6-3h1c58.9,0,127.6-15.7,193.2-44.2c72.5-31.5,134.6-75.1,175-122.8c41.6-49.1,55.4-97.1,38.9-135.1c-2-4.5-4.4-8.9-7.2-13.1c-3.8-5.6-7.9-6.7-10.7-6.7c-2.3,0-10.1,1-11.5,13.8c-7.4,65.8-87.2,144.7-198.4,196.1c-7.1,3.3-18.8,8.4-26.1,11.3c-22.9,9.3-46,17-68.9,22.9c4.5-4.7,10.3-9.2,14.6-11.2c67.1-30.9,124.8-72.5,162.5-117.1c41.5-49.1,55.4-97.1,38.9-135.1c-16.5-38-61-60.7-125.2-63.9c-5-0.3-10.2-0.4-15.4-0.4c-5.1,0-10.5,0.1-15.8,0.4c-3.6,0.2-11.9,0.5-12.9,7.8c-0.9,7.3,7.2,9.7,10.7,10.8c34,10.3,56,29.1,63.4,54.3c9.3,31.6-4.6,71.6-39.3,112.6c-17.8,21.1-40.2,41.5-66.6,60.6c-1.8,1.3-3.5,2.5-5,3.5c-0.3-0.5-0.6-1-1-1.4c-0.1-0.6,0.3-4.3,3.8-8.5c34.6-41.9,48.9-82.4,41.4-117.2c-1.9-8.6-7.5-21.5-12.5-28.8c-22.6-32.6-69.9-50.5-133.3-50.5c-58.9,0-127.6,15.7-193.5,44.3c-12.1,5.3-24.2,11-36,17.1c-4.3,2.2-10.2,5.3-8.7,11.5c0.7,2.8,3.3,5.7,7.6,5.7c1.2,0,3.1-0.2,7.4-1.5c43.5-13,86.5-19.9,124.6-19.9c65.8,0,112.4,20.3,127.7,55.6c6.8,15.6,7.3,33.5,1.7,53.3c-1.3,4.4-6.1,7.9-9.4,7.9c-2.7,0-7.2-3.5-9.6-9.1c-16.4-38.1-60.9-60.8-125.1-64c-5.2-0.3-10.5-0.4-15.9-0.4c-127.3,0-289.1,73.4-368.4,167.1c-5.9,6.9-11.3,14-16.1,21c-2.7,3.9-5.4,8.5-3,13c1.3,2.5,4,4.1,6.9,4.1c2.9,0,5.6-1.4,9.7-4.9C153.4,448.9,283.4,399,384.9,399c5.1,0,10.2,0.1,15.2,0.4c31.2,1.6,57.2,7.9,77.1,18.8c-1.2,0.5-2.3,1-3.5,1.5c-1,0.4-2,0.9-3.1,1.4c-0.3,0-1,0.1-2.2,0.1c-3,0-7.4-0.3-12.3-0.8c-10.3-1.1-21.1-1.7-32.3-1.7c-58.9,0-127.5,15.7-193.2,44.2C89.2,524.1-4.8,628.5,11.9,705.7C13.8,714.2,19.2,726.8,24,733.8z M485.3,448.8c61.3-26.6,121.7-23.6,134.8,6.7c13.2,30.3-25.9,76.5-87.2,103.1c-61.3,26.6-121.6,23.6-134.8-6.7C385,521.6,424,475.4,485.3,448.8z"/></g></g><g></g><g></g><g></g><g></g><g></g><g></g><g></g><g></g><g></g><g></g><g></g><g></g><g></g><g></g><g></g></g>
</svg>