<?xml version="1.0" encoding="UTF-8" standalone="no"?>
<svg
   version="1.1"
   width="24"
   height="24"
   viewBox="0 0 24 24"
   id="svg4"
   sodipodi:docname="table_export.svg"
   inkscape:version="1.1.1 (3bf5ae0d25, 2021-09-20)"
   xmlns:inkscape="http://www.inkscape.org/namespaces/inkscape"
   xmlns:sodipodi="http://sodipodi.sourceforge.net/DTD/sodipodi-0.dtd"
   xmlns="http://www.w3.org/2000/svg"
   xmlns:svg="http://www.w3.org/2000/svg">
  <defs
     id="defs8" />
  <sodipodi:namedview
     id="namedview6"
     pagecolor="#ffffff"
     bordercolor="#666666"
     borderopacity="1.0"
     inkscape:pageshadow="2"
     inkscape:pageopacity="0.0"
     inkscape:pagecheckerboard="0"
     showgrid="false"
     inkscape:zoom="36.375"
     inkscape:cx="12"
     inkscape:cy="12"
     inkscape:window-width="1920"
     inkscape:window-height="1133"
     inkscape:window-x="-9"
     inkscape:window-y="-9"
     inkscape:window-maximized="1"
     inkscape:current-layer="svg4" />
  <path
     id="path2"
     d="M 5 4 A 2 2 0 0 0 3 6 L 3 18 A 2 2 0 0 0 5 20 L 19 20 A 2 2 0 0 0 21 18 L 21 12.949219 L 12.068359 12.949219 L 12.068359 4 L 5 4 z M 5 8 L 11 8 L 11 12 L 5 12 L 5 8 z M 5 14 L 11 14 L 11 18 L 5 18 L 5 14 z M 13 14 L 19 14 L 19 18 L 13 18 L 13 14 z " />
  <path
     id="path2-2"
     d="m 13.738714,4.0181118 2.201172,2.199219 -2.800781,2.800781 2.800781,2.7988272 2.798828,-2.7988272 2.101563,2.0996082 V 4.0181118 Z" />
</svg>
